<?xml version="1.0" standalone="no"?><!DOCTYPE svg PUBLIC "-//W3C//DTD SVG 1.1//EN" "http://www.w3.org/Graphics/SVG/1.1/DTD/svg11.dtd"><svg t="1723471264247" class="icon" viewBox="0 0 1024 1024" version="1.1" xmlns="http://www.w3.org/2000/svg" p-id="2300" xmlns:xlink="http://www.w3.org/1999/xlink" width="200" height="200"><path d="M507.621517 816.622345c-25.6 0-46.362483-21.821793-46.362483-48.728276 0-26.941793 20.762483-48.798897 46.362483-48.798897a59.321379 59.321379 0 0 0 42.619586-19.385379 65.677241 65.677241 0 0 0 17.125518-45.444414c0-26.906483 20.762483-48.728276 46.327172-48.728276 25.6 0 46.362483 21.821793 46.362483 48.728276a165.85269 165.85269 0 0 1-44.279173 114.405518 149.715862 149.715862 0 0 1-108.155586 47.951448z m-0.953379-695.719724c56.531862 72.633379 130.224552 172.596966 190.887724 255.470345l3.707586 5.367172c92.689655 127.258483 126.057931 324.219586 6.497104 454.373517-51.870897 57.485241-123.904 90.041379-199.220966 90.041379-75.316966 0-147.350069-32.556138-199.220965-90.041379-107.979034-117.971862-105.189517-300.808828 6.920827-454.867862L355.222069 327.150345c50.034759-69.243586 105.613241-146.290759 151.481379-205.753379v-0.494345z m0-120.408276c-15.924966 0.03531-31.073103 7.556414-41.207172 20.48C403.350069 98.480552 312.072828 226.692414 243.041103 322.242207c-134.355862 185.273379-146.39669 421.746759 0 581.632C312.390621 980.568276 408.646621 1024 509.245793 1024c100.599172 0 196.819862-43.431724 266.169379-120.125793 146.39669-159.885241 130.189241-405.115586 0-581.632-72.280276-97.456552-165.888-225.209379-227.045517-301.267862A53.28331 53.28331 0 0 0 507.621517 0l-0.953379 0.494345z" fill="#1296db" p-id="2301"></path></svg>